<?xml version="1.0" encoding="utf-8"?>
<!-- Generator: Adobe Illustrator 15.1.0, SVG Export Plug-In . SVG Version: 6.00 Build 0)  -->
<!DOCTYPE svg PUBLIC "-//W3C//DTD SVG 1.1//EN" "http://www.w3.org/Graphics/SVG/1.1/DTD/svg11.dtd">
<svg version="1.1" id="Layer_1" xmlns="http://www.w3.org/2000/svg" xmlns:xlink="http://www.w3.org/1999/xlink" x="0px" y="0px"
	 width="352px" height="337px" viewBox="24 31.5 352 337" enable-background="new 24 31.5 352 337" xml:space="preserve">
<g>
	<g>
		<path d="M357.805,131.685c5.098-1.672,9.857-4.429,9.857-9.027c0-2.423-1.082-3.426-3.51-3.426c-2.84,0-5.767,2.171-7.521,3.925
			c-2.84,2.84-5.771,6.271-8.106,10.617C350.366,133.69,354.297,132.77,357.805,131.685 M362.82,147.23
			c-3.514,4.598-9.027,8.862-15.967,8.862c-5.269,0-8.359-3.765-8.359-8.61c0-14.965,16.55-30.763,27.583-30.763
			c3.762,0,6.519,1.424,6.519,5.433c0,5.854-5.181,9.031-14.291,11.79c-2.679,0.751-8.271,2.002-11.035,2.592
			c-1.25,2.002-2.926,6.015-2.926,9.188c0,4.265,2.176,6.771,6.022,6.771c4.513,0,8.772-3.509,11.194-6.267
			C362.32,145.476,363.402,146.479,362.82,147.23 M367.168,44.587c0.411,0,0.916-0.252,0.751-0.834l-1.59-11.203
			c-0.165-0.752-0.5-1.003-0.921-1.003c-0.252,0-0.586,0.169-0.834,0.673c-0.504,0.999-1.26,1.837-2.676,1.837
			c-2.506,0-4.85-1.837-10.781-1.837c-7.776,0-18.057,3.339-18.057,14.625c0,11.282,9.028,14.964,16.801,17.805
			c8.19,3.009,14.713,5.263,14.713,13.792c0,9.526-6.684,12.618-13.04,12.618c-7.021,0-15.294-3.344-18.222-14.46
			c-0.252-0.917-0.586-1.173-1.25-1.173c-0.59,0-1.09,0.422-1.09,1.424v14.292c0,0.839,0.5,1.256,1.002,1.256
			c0.334,0,0.752-0.248,1-0.67c0.586-0.834,1.254-1.589,2.848-1.589c3.171,0,6.937,3.848,16.046,3.848
			c8.021,0,21.565-2.511,21.565-18.305c0-6.27-2.589-14.295-17.809-18.559c-10.777-3.01-14.205-7.521-14.205-13.041
			c0-4.763,2.846-9.358,10.613-9.358c3.848,0,10.113,1.086,14.295,9.276C366.58,44.5,366.828,44.587,367.168,44.587 M320.941,41.831
			c-2.172,0-4.686-1.338-4.686-4.852c0-3.76,3.014-4.929,5.268-4.929c3.179,0,5.771,2.258,5.771,6.185
			c0,4.347-3.262,9.531-9.028,9.531c-0.586,0-0.838-0.421-0.838-0.752c0-0.421,0.252-0.673,0.588-0.755
			c3.928-0.751,5.436-3.261,5.519-4.933C323.195,41.583,322.027,41.831,320.941,41.831 M330.973,121.735
			c0,2.427-0.92,5.684-3.009,9.192c-3.931,6.354-7.022,7.608-9.696,7.608c-2.259,0-3.262-1.837-3.262-4.512
			c0-2.341,1.003-5.351,2.762-8.111c2.676-4.26,6.436-7.77,9.779-7.77C329.805,118.145,330.973,119.23,330.973,121.735
			 M312.67,171.388c-9.279,0-12.037-5.35-12.037-8.024c0-2.506,1.004-4.096,3.512-5.854c1.756-1.25,4.344-2.505,6.351-3.257
			c2.258,1.004,5.685,3.01,6.772,4.013c5.013,3.51,6.016,5.516,6.016,7.273C323.282,170.301,316.18,171.388,312.67,171.388
			 M341.838,120.233c1.003,0,1.924-0.5,1.924-2.259c0-1.503-1.42-2.007-2.758-2.007c-1.506,0-3.427,0.417-5.438,1.755
			c-0.498,0.421-1.754,1.003-2.506,0.499c-1.588-1.085-3.009-1.837-6.77-1.837c-3.762,0-9.275,2.258-12.788,7.022
			c-2.506,3.509-3.01,6.019-3.01,8.528c0,2.506,1.007,4.347,1.754,5.346c0.166,0.252,0.247,0.417,0.247,0.673
			c0,0.582-0.746,0.999-2.001,1.338c-2.254,0.751-6.019,2.922-6.019,6.77c0,2.506,2.002,4.929,4.264,6.432
			c0,0-4.596,1.255-8.276,3.261c-2.845,1.589-6.019,4.012-6.019,7.521c0,4.013,3.431,10.534,17.552,10.534
			c8.276,0,13.457-3.005,15.469-5.267c1.498-1.755,1.75-3.757,1.75-5.012c0-4.517-5.013-8.78-10.526-11.785
			c-3.514-2.011-8.693-4.435-8.693-8.029c0-0.917,0.248-1.92,1.251-2.506c0.673-0.503,1.755-0.751,2.928-0.751
			c1.589,0,3.595,0.504,5.015,0.504c4.513,0,10.617-1.507,14.375-9.532c1.002-2.258,1.424-4.516,1.424-6.436
			c0-2.509-0.422-3.095-0.422-4.26c0-1.003,1.004-1.589,2.927-1.589C340.249,119.147,340.249,120.233,341.838,120.233
			 M290.184,131.685c5.182-1.672,9.945-4.429,9.945-9.027c0-2.423-1.168-3.426-3.51-3.426c-2.928,0-5.768,2.171-7.523,3.925
			c-2.924,2.84-5.769,6.271-8.191,10.617C282.827,133.69,286.672,132.77,290.184,131.685 M295.199,147.23
			c-3.514,4.598-9.027,8.862-15.881,8.862c-5.271,0-8.44-3.765-8.44-8.61c0-14.965,16.549-30.763,27.579-30.763
			c3.761,0,6.521,1.424,6.521,5.433c0,5.854-5.099,9.031-14.295,11.79c-2.593,0.751-8.277,2.002-11.035,2.592
			c-1.25,2.002-2.84,6.015-2.84,9.188c0,4.265,2.09,6.771,6.019,6.771c4.514,0,8.776-3.509,11.116-6.267
			C294.695,145.476,295.864,146.479,295.199,147.23 M270.791,105.438c0,0.247-0.083,0.751-0.33,1.251
			c-6.779,14.712-13.462,29.341-19.98,44.05c-0.334,0.755-1.002,2.258-1.002,3.261c0,1.255,0.916,2.34,2.258,2.34
			c0.664,0,1.584-0.247,2.089-0.499c3.679-1.507,7.522-5.519,9.778-8.946c0.504-0.751-0.416-1.42-1.002-0.916
			c-0.92,0.835-3.513,4.344-6.271,5.85c-0.5,0.248-1.003,0.248-0.669-0.751l20.899-46.391c0.33-0.838,0.5-1.338,0.5-1.841
			c0-0.583-0.42-0.838-1.004-0.838c-1.002,0-2.175,0.255-3.682,0.421c-1.25,0.082-3.423,0.251-5.342,0.417
			c-0.504,0-0.756,0.503-0.756,0.837c0,0.5,0.416,0.748,0.916,0.748c1.008,0,2.007,0,3.098,0.256
			C270.708,104.853,270.791,105.104,270.791,105.438 M307.484,73.425c0-5.098,3.761-5.601,7.025-5.853
			c1.252-0.165,1.498-2.171-0.256-2.171h-25.33c-1.75,0-1.75,2.257,0,2.423c5.02,0.334,9.033,1.254,9.033,6.101v9.11
			c0,2.006-1.005,3.426-2.094,4.264c-4.43,3.679-10.03,3.93-13.288,3.93c-16.046,0-23.231-13.873-23.231-27.665
			c0-11.203,5.676-28.839,24.235-28.839c16.636,0,22.649,10.783,24.66,14.878c0.668,1.256,2.254,1.004,2.254,0V36.315
			c0-1.256-1.843-1.508-2.254,0c-0.339,1.502-1.339,2.505-2.593,2.505c-1.004,0-2.176-0.751-2.672-1.09
			c-5.019-3.171-9.787-5.681-19.311-5.681c-15.381,0-34.357,7.688-34.357,31.098c0,23.565,17.805,30.84,33.351,30.84
			c15.3,0,23.323-7.773,24.825-8.776V73.425H307.484z M252.148,105.438c0,0.247-0.082,0.751-0.33,1.251
			c-6.771,14.712-13.457,29.341-19.977,44.05c-0.338,0.755-1.007,2.258-1.007,3.261c0,1.255,0.921,2.34,2.259,2.34
			c0.668,0,1.59-0.247,2.088-0.499c3.678-1.507,7.525-5.519,9.779-8.946c0.504-0.751-0.417-1.42-1.003-0.916
			c-0.916,0.835-3.509,4.344-6.267,5.85c-0.504,0.248-1.008,0.248-0.67-0.751l20.896-46.391c0.335-0.838,0.504-1.338,0.504-1.841
			c0-0.583-0.421-0.838-1.008-0.838c-1.004,0-2.172,0.255-3.674,0.421c-1.256,0.082-3.428,0.251-5.354,0.417
			c-0.5,0-0.752,0.503-0.752,0.837c0,0.5,0.421,0.748,0.921,0.748c1.004,0,2.006,0,3.092,0.256
			C252.066,104.853,252.148,105.104,252.148,105.438 M222.395,117.976c-7.93,0-19.295,18.808-19.295,30.259
			c0,3.009,1.338,5.267,4.518,5.267c7.769,0,19.376-19.224,19.376-29.338C226.992,121.153,226.158,117.976,222.395,117.976
			 M220.723,115.634c8.023,0,9.531,7.022,9.531,13.54c0,10.365-9.531,26.919-21.049,26.919c-7.273,0-10.031-5.854-10.031-11.873
			C199.174,129.76,209.452,115.634,220.723,115.634 M180.449,32.298c-1.755,0-1.755,1.759-0.751,2.01
			c1.923,0.417,5.937,0.752,5.937,6.016c0.082,12.454,0.082,28.755-0.417,42.048c-0.088,4.763-1.512,8.771-5.603,9.274
			c-1.503,0.083-1.503,1.838-0.503,1.838h18.051c1.007,0,1.338-1.585,0.087-1.838c-2.754-0.503-7.273-0.503-7.607-9.274
			c-0.417-8.529-0.665-40.789-0.665-40.789l45.29,50.399h3.76c0,0,0-47.143,0.252-50.738c0.248-4.177,1.673-6.436,6.181-6.77
			c2.263-0.166,1.842-2.176,0.339-2.176h-18.391c-2.172,0-1.672,2.01-0.67,2.01c2.008,0.252,8.277,0.999,8.529,7.019
			c0.248,8.78,0.664,36.112,0.664,36.112l-40.272-45.141H180.449z M196.667,120.65c0.495,0,0.829-0.252,0.999-0.752l4.018-12.788
			c0.248-0.751-0.086-1.255-0.756-1.255c-0.252,0-0.583,0.081-0.838,0.334c-0.752,0.751-1.669,1.507-2.424,1.507
			c-0.417,0-0.752-0.252-1.168-0.586c-3.592-4.431-9.358-5.103-12.12-5.103c-12.788,0-23.822,8.363-30.341,18.643
			c-3.93,6.101-5.936,12.788-5.936,19.393c0,10.53,7.272,16.466,16.801,16.466c4.264,0,7.521-0.503,13.288-2.926
			c1.259-0.504,2.679-1.09,3.512-1.09c1.421,0,1.507,2.093,1.673,4.016c0,0.752,0.499,0.999,1.003,0.999
			c0.334,0,0.751-0.165,1.004-0.747l5.35-15.298c0.417-1.255-0.083-1.754-0.587-1.754c-0.751,0-1.168,0.334-1.754,1.333
			c-2.428,3.76-4.1,6.188-12.537,10.287c-3.512,1.668-7.608,2.671-10.868,2.671c-7.105,0-9.863-5.433-9.863-12.285
			c0-9.028,4.266-18.473,10.783-26.329c4.182-5.184,10.535-11.034,17.969-11.034c7.109,0,12.376,5.264,11.62,15.048
			C195.413,120.233,195.995,120.65,196.667,120.65 M164.317,83.874V41.327c0-5.263,3.76-6.767,7.773-7.019
			c1.506,0,1.758-2.01-0.248-2.01h-25.077c-1.755,0-2.003,1.924-0.252,2.01c3.765,0.417,8.275,2.254,8.275,7.019v42.547
			c0,4.764-1.754,7.772-7.273,7.772c-2.171,0-1.671,1.838,0,1.838h24.575c1.255,0,1.589-1.838-0.5-1.838
			C166.323,91.646,164.317,88.133,164.317,83.874 M104.973,41.496c0-1.923-0.751-3.765-3.257-4.681
			c-2.094-0.751-4.018-1.004-6.106-1.338c-3.009-0.5-2.423-3.427,0.252-3.427c1.754,0,10.113,0.669,20.058,0.669
			c5.771,0,14.044-0.252,18.056-0.499c2.507-0.17,2.759,2.505,1.004,3.005c-1.754,0.503-10.031,2.506-24.826,16.05
			C94.859,65.318,75.136,86.131,75.136,86.131s44.293,52.822,52.069,59.093c8.025,6.522,13.544,7.021,19.56,7.525
			c1.506,0.082,2.006,3.005,0,3.005h-34.603c0,0-42.881-51.819-49.902-56.587c-1.25-0.751-4.265-1.754-4.513,1.755
			c-0.252,3.261-0.503,30.762,0.248,36.776c0.755,6.019,3.262,14.795,17.557,14.795c1.755,0,2.757,3.348,0.252,3.261
			c-8.446-0.417-14.794-0.417-25.247-0.417c-9.027,0-21.647,0.417-23.401,0.417c-3.006,0-3.006-2.757-0.252-3.005
			c4.012-0.256,13.544-0.755,14.126-16.05c0.669-15.798,0.252-82.333,0-89.603c-0.082-5.016-4.347-11.79-15.377-11.79
			c-1.759,0-1.503-3.009,0.499-3.009H73.29c1.76,0,2.763,2.927-0.248,3.179c-3.009,0.251-14.46,0.587-14.795,15.881
			c-0.416,15.298-0.416,39.033-0.416,40.036c0,1.256,0.499,2.511,2.258,1.256c5.433-3.679,21.562-19.477,33.603-33.016
			c4.759-5.35,8.025-10.031,10.279-14.378C104.469,44.335,104.973,42.999,104.973,41.496"/>
		<path d="M317.514,176.292c-1,0-1.256,1.758,0.086,1.758c1.504,0,4.683,0.417,4.683,5.012l-0.253,37.113
			c0,4.014-1.424,7.357-5.186,7.357c-1.25,0-1.25,1.672-0.246,1.672h15.465c0.996,0,0.996-1.672-0.172-1.672
			c-2.258,0-6.188-1.008-6.27-7.357l-0.335-37.782c0,0,39.621,46.556,39.872,46.812h2.675l0.252-44.641
			c0-4.429,1.92-6.766,6.688-6.766c0.998,0,0.998-1.506,0-1.506h-17.307c-1.007,0-1.007,1.506,0,1.506
			c1.76,0,7.108,0.335,7.188,6.102l0.422,32.514l-34.02-40.121L317.514,176.292L317.514,176.292z M269.707,202.369
			c0-13.541,6.271-23.985,17.804-23.985c10.279,0,18.052,9.945,18.052,23.985c0,17.305-7.021,24.908-18.052,24.908
			C276.725,227.277,269.707,216.916,269.707,202.369 M287.511,229.709c15.464,0,26.576-10.787,26.576-27.34
			c0-14.543-10.782-26.329-26.576-26.329c-15.386,0-26.415,12.037-26.415,26.329C261.096,217.914,271.543,229.709,287.511,229.709
			 M213.38,183.396c0-4.764,2.754-5.012,9.269-5.012c11.281,0,22.649,5.598,22.649,23.486c0,17.387-9.526,24.824-22.149,24.824
			h-2.676c-3.336,0-7.093-0.672-7.093-7.273V183.396z M200.343,176.041c-1.754,0-1.42,2.01-0.417,2.01
			c2.002,0,5.348,1.003,5.348,5.012v37.701c0,4.008-0.918,6.516-5.682,6.516c-1.173,0-1.173,1.926-0.083,1.926h25.149
			c11.029,0,29.334-5.268,29.334-27.082c0-22.065-15.047-26.082-29.59-26.082L200.343,176.041L200.343,176.041z M138.073,176.292
			c-1.003,0-1.256,1.758,0.083,1.758c1.507,0,4.681,0.417,4.681,5.012l-0.252,37.113c0,4.014-1.42,7.357-5.181,7.357
			c-1.256,0-1.256,1.672-0.253,1.672h15.465c1.003,0,1.003-1.672-0.169-1.672c-2.255,0-6.181-1.008-6.268-7.357l-0.334-37.782
			c0,0,39.621,46.556,39.868,46.812h2.68l0.247-44.641c0-4.429,1.924-6.766,6.688-6.766c1.002,0,1.002-1.506,0-1.506h-17.301
			c-1.004,0-1.004,1.506,0,1.506c1.754,0,7.104,0.335,7.187,6.102l0.421,32.514l-34.022-40.121L138.073,176.292L138.073,176.292z
			 M89.927,202.369c0-13.541,6.271-23.985,17.804-23.985c10.283,0,18.053,9.945,18.053,23.985c0,17.305-7.018,24.908-18.053,24.908
			C96.95,227.277,89.927,216.916,89.927,202.369 M107.731,229.709c15.465,0,26.58-10.787,26.58-27.34
			c0-14.543-10.781-26.329-26.58-26.329c-15.38,0-26.415,12.037-26.415,26.329C81.316,217.914,91.768,229.709,107.731,229.709
			 M367.495,258.209H30.749v7.271h336.747L367.495,258.209L367.495,258.209z M367.495,248.008H30.749v3.174h336.747L367.495,248.008
			L367.495,248.008z M29.998,176.375h21.564c1.085,0,1.42,1.759,0.086,1.759c-2.093,0-6.356,1.003-6.356,5.511v37.449
			c0,4.264,2.089,5.768,11.369,5.768c8.944,0,17.387-1.086,21.564-12.953c0.334-1.004,1.923-0.922,1.671,0.586l-2.757,14.791h-46.39
			c-1.589,0-1.255-1.92-0.251-1.92c3.009,0,6.687-1.426,6.687-6.854v-35.859c0-4.596-2.671-6.519-7.187-6.519
			C28.83,178.133,28.743,176.375,29.998,176.375"/>
		<path d="M43.946,343.584c0-2.303-0.045-4.238-0.137-5.811c-0.087-1.57-0.26-2.828-0.516-3.77s-0.628-1.615-1.123-2.02
			c-0.492-0.404-1.143-0.605-1.953-0.605h-1.659v22.396h1.75c0.628,0,1.168-0.119,1.615-0.357c0.449-0.24,0.825-0.729,1.122-1.463
			c0.301-0.73,0.524-1.766,0.677-3.096C43.867,347.531,43.946,345.773,43.946,343.584 M51.575,344.395
			c0,2.275-0.157,4.363-0.472,6.262c-0.313,1.902-0.85,3.547-1.613,4.938c-0.765,1.393-1.783,2.479-3.056,3.254
			c-1.271,0.779-2.864,1.168-4.779,1.168H31.108v-34.473h11.088c1.585,0,2.96,0.451,4.128,1.35c1.168,0.896,2.138,2.168,2.918,3.814
			c0.775,1.646,1.361,3.627,1.75,5.947C51.379,338.971,51.575,341.555,51.575,344.395"/>
	</g>
	<path d="M54.716,334.25h7.093v25.764h-7.093V334.25z M54.716,325.545h7.093v6.463h-7.093V325.545z"/>
	<g>
		<path d="M76.261,341.748c0-0.959-0.053-1.73-0.155-2.312c-0.107-0.586-0.256-1.041-0.45-1.371
			c-0.199-0.33-0.442-0.545-0.743-0.648c-0.298-0.105-0.64-0.16-1.033-0.16c-0.387,0-0.729,0.055-1.03,0.16
			c-0.299,0.104-0.546,0.318-0.739,0.648c-0.198,0.33-0.339,0.785-0.431,1.371c-0.086,0.582-0.132,1.354-0.132,2.312
			c0,0.957,0.046,1.729,0.132,2.311c0.092,0.582,0.232,1.041,0.431,1.367c0.193,0.33,0.44,0.549,0.739,0.652
			c0.301,0.105,0.644,0.156,1.03,0.156c0.394,0,0.735-0.051,1.033-0.156c0.301-0.104,0.544-0.322,0.743-0.652
			c0.194-0.326,0.343-0.785,0.45-1.367C76.208,343.477,76.261,342.705,76.261,341.748 M77.966,361.811
			c0-0.689-0.301-1.234-0.899-1.641c-0.599-0.398-1.644-0.605-3.142-0.605h-3.141c-0.33,0.271-0.62,0.615-0.876,1.035
			c-0.256,0.418-0.383,0.852-0.383,1.303c0,0.775,0.396,1.398,1.191,1.859c0.793,0.463,1.788,0.697,2.985,0.697
			c0.925,0,1.676-0.053,2.241-0.16c0.569-0.104,1.004-0.268,1.305-0.49c0.297-0.229,0.491-0.504,0.582-0.83
			C77.921,362.648,77.966,362.26,77.966,361.811 M84.295,360.463c0,2.754-0.83,4.773-2.494,6.062
			c-1.658,1.283-4.392,1.928-8.189,1.928c-1.227,0-2.419-0.092-3.566-0.27c-1.155-0.178-2.171-0.486-3.055-0.92
			c-0.883-0.436-1.593-1.008-2.13-1.727c-0.541-0.719-0.81-1.602-0.81-2.65c0-0.809,0.202-1.453,0.607-1.932
			c0.404-0.475,0.994-0.912,1.771-1.301l1.168-0.582l-0.851-0.494c-0.87-0.508-1.469-1.107-1.795-1.797
			c-0.331-0.686-0.495-1.51-0.495-2.469c0-1.164,0.321-2.139,0.965-2.918c0.641-0.775,1.354-1.42,2.13-1.928l0.81-0.541
			l-0.764-0.674c-0.359-0.297-0.689-0.672-0.986-1.121c-0.301-0.447-0.562-0.934-0.784-1.459c-0.227-0.523-0.405-1.068-0.541-1.639
			c-0.132-0.564-0.202-1.135-0.202-1.705c0-2.811,0.728-4.994,2.179-6.551c1.45-1.557,3.612-2.336,6.486-2.336
			c0.866,0,1.561,0.045,2.084,0.135c0.524,0.092,1.028,0.24,1.507,0.451l0.673-4.668h5.741l-3.944,5.922
			c0.865,0.719,1.604,1.646,2.22,2.783c0.611,1.139,0.921,2.559,0.921,4.264c0,2.457-0.714,4.414-2.134,5.879
			c-1.42,1.471-3.391,2.199-5.903,2.199c-0.537,0-1.127-0.012-1.771-0.045c-0.645-0.029-1.174-0.104-1.595-0.223
			c-0.358,0.238-0.706,0.457-1.03,0.65c-0.331,0.195-0.496,0.533-0.496,1.012c0,0.629,0.238,0.996,0.718,1.1
			c0.479,0.104,0.974,0.156,1.481,0.156l4.265-0.045c2.452-0.029,4.368,0.568,5.747,1.795
			C83.606,356.035,84.295,357.92,84.295,360.463"/>
	</g>
	<path d="M86.313,334.25h7.092v25.764h-7.092V334.25z M86.313,325.545h7.092v6.463h-7.092V325.545z"/>
	<g>
		<path d="M112.167,358.893c-0.211,0.15-0.562,0.314-1.054,0.492c-0.494,0.182-1.057,0.348-1.684,0.496
			c-0.628,0.146-1.297,0.268-1.998,0.357c-0.702,0.092-1.399,0.137-2.089,0.137c-0.925,0-1.763-0.092-2.51-0.271
			c-0.751-0.178-1.388-0.475-1.912-0.896c-0.524-0.42-0.924-0.975-1.209-1.66c-0.284-0.688-0.425-1.543-0.425-2.559l0.087-15.891
			H95.56v-4.85h3.905l0.177-7.092h6.733v7.092h5.387v4.85h-5.387v13.018c0,0.508,0.099,0.912,0.293,1.215
			c0.193,0.297,0.45,0.52,0.764,0.672c0.314,0.148,0.656,0.248,1.031,0.289c0.376,0.045,0.744,0.07,1.099,0.07
			c0.569,0,1.058-0.055,1.461-0.156c0.405-0.109,0.785-0.232,1.145-0.385L112.167,358.893L112.167,358.893z"/>
		<path d="M126.798,347.223c-0.331,0.182-0.69,0.348-1.078,0.492c-0.388,0.152-0.747,0.271-1.077,0.361
			c-0.628,0.178-1.152,0.373-1.569,0.582c-0.421,0.211-0.742,0.463-0.966,0.766c-0.223,0.297-0.379,0.66-0.471,1.076
			c-0.09,0.418-0.136,0.912-0.136,1.482c0,1.135,0.156,2.01,0.471,2.625c0.312,0.611,0.908,0.92,1.774,0.92
			c0.417,0,0.813-0.062,1.189-0.182c0.375-0.119,0.697-0.371,0.966-0.764c0.269-0.389,0.487-0.967,0.652-1.727
			c0.161-0.764,0.244-1.773,0.244-3.029L126.798,347.223L126.798,347.223z M136.09,359.205c-0.183,0.121-0.442,0.266-0.785,0.426
			c-0.346,0.166-0.735,0.314-1.168,0.449c-0.434,0.137-0.896,0.248-1.392,0.34c-0.494,0.086-0.966,0.133-1.411,0.133
			c-0.9,0-1.618-0.084-2.159-0.244c-0.536-0.166-0.961-0.396-1.275-0.697c-0.317-0.297-0.549-0.652-0.698-1.053
			c-0.148-0.404-0.284-0.846-0.403-1.324l-0.405,0.805c-0.297,0.604-0.884,1.168-1.75,1.709c-0.867,0.537-2.019,0.805-3.456,0.805
			c-1.254,0-2.311-0.223-3.166-0.672c-0.85-0.447-1.548-1.041-2.084-1.771c-0.541-0.734-0.929-1.562-1.168-2.492
			c-0.24-0.926-0.36-1.871-0.36-2.828c0-2.154,0.513-3.871,1.528-5.16c1.015-1.287,2.65-2.154,4.892-2.604l2.695-0.582
			c0.686-0.148,1.238-0.307,1.659-0.471c0.418-0.166,0.748-0.377,0.987-0.629c0.238-0.256,0.403-0.568,0.495-0.943
			c0.087-0.373,0.133-0.83,0.133-1.371c0-1.227-0.24-2.084-0.72-2.58c-0.478-0.49-1.18-0.738-2.108-0.738
			c-0.867,0-1.593,0.248-2.175,0.738c-0.587,0.496-0.876,1.131-0.876,1.908c0,0.449,0.028,0.842,0.091,1.168
			c0.058,0.328,0.148,0.672,0.268,1.031l-5.923,0.137c-0.124-0.51-0.211-0.941-0.272-1.305c-0.058-0.359-0.088-0.852-0.088-1.479
			c0-1.168,0.236-2.154,0.716-2.965c0.482-0.809,1.13-1.475,1.957-1.998c0.82-0.523,1.777-0.902,2.867-1.145
			c1.095-0.238,2.267-0.357,3.526-0.357c1.796,0,3.314,0.141,4.557,0.424c1.239,0.285,2.242,0.684,3.006,1.193
			c0.764,0.508,1.316,1.111,1.658,1.816c0.348,0.701,0.517,1.486,0.517,2.357v14.988c0,0.479,0.166,0.846,0.496,1.102
			c0.33,0.252,0.718,0.381,1.168,0.381c0.211,0,0.417-0.047,0.628-0.133v3.631H136.09z"/>
	</g>
	<rect x="138.693" y="325.545" width="7.092" height="34.473"/>
	<polygon points="173.97,360.016 173.97,344.125 169.437,344.125 169.437,360.016 161.805,360.016 161.805,325.543 169.437,325.543 
		169.437,338.334 173.97,338.334 173.97,325.543 181.603,325.543 181.603,360.016 	"/>
	<g>
		<path d="M197.175,360.016v-4.174c-0.417,1.465-1.123,2.607-2.109,3.436c-0.986,0.82-2.245,1.229-3.769,1.229
			c-0.723,0-1.425-0.119-2.109-0.354c-0.689-0.24-1.297-0.607-1.821-1.104c-0.524-0.49-0.941-1.123-1.254-1.883
			c-0.314-0.768-0.472-1.672-0.472-2.715v-20.199h7.093v18.221c0,0.6,0.124,1.064,0.38,1.393c0.255,0.33,0.681,0.496,1.278,0.496
			c0.839,0,1.504-0.451,1.998-1.348c0.492-0.898,0.739-2.258,0.739-4.086v-14.676h7.092v25.764H197.175z"/>
		<path d="M231.064,360.016v-18.268c0-0.598-0.129-1.064-0.381-1.396c-0.256-0.324-0.686-0.49-1.279-0.49
			c-0.842,0-1.508,0.486-1.998,1.457c-0.495,0.975-0.743,2.301-0.743,3.971v14.727h-7.046v-18.268c0-0.598-0.129-1.064-0.381-1.395
			c-0.256-0.326-0.68-0.492-1.278-0.492c-0.839,0-1.511,0.455-2.022,1.371c-0.508,0.912-0.76,2.266-0.76,4.057v7.32v2.691v2.355
			v1.686v0.672h-7.092V334.25h7.046v4.221c0.422-1.467,1.132-2.617,2.13-3.455c1.004-0.838,2.271-1.26,3.795-1.26
			c1.465,0,2.707,0.389,3.728,1.168c1.016,0.779,1.626,1.961,1.837,3.547c0.417-1.467,1.123-2.617,2.113-3.455
			c0.986-0.838,2.242-1.26,3.769-1.26c0.715,0,1.421,0.119,2.108,0.359c0.688,0.238,1.293,0.605,1.817,1.102
			c0.523,0.49,0.94,1.119,1.259,1.883c0.311,0.764,0.471,1.668,0.471,2.717v20.197h-7.092V360.016z"/>
		<path d="M253.461,347.223c-0.331,0.182-0.689,0.348-1.078,0.492c-0.388,0.152-0.747,0.271-1.076,0.361
			c-0.629,0.178-1.152,0.373-1.568,0.582c-0.422,0.211-0.742,0.463-0.967,0.766c-0.227,0.297-0.385,0.66-0.476,1.076
			c-0.086,0.418-0.131,0.912-0.131,1.482c0,1.135,0.155,2.01,0.47,2.625c0.314,0.611,0.904,0.92,1.775,0.92
			c0.417,0,0.812-0.062,1.188-0.182c0.373-0.119,0.697-0.371,0.967-0.764c0.269-0.389,0.482-0.967,0.647-1.727
			c0.165-0.764,0.248-1.773,0.248-3.029L253.461,347.223L253.461,347.223z M262.753,359.205c-0.183,0.121-0.442,0.266-0.785,0.426
			c-0.346,0.166-0.733,0.314-1.168,0.449c-0.433,0.137-0.899,0.248-1.391,0.34c-0.495,0.086-0.966,0.133-1.416,0.133
			c-0.896,0-1.614-0.084-2.155-0.244c-0.536-0.166-0.961-0.396-1.279-0.697c-0.312-0.297-0.545-0.652-0.692-1.053
			c-0.149-0.404-0.284-0.846-0.404-1.324l-0.405,0.805c-0.297,0.604-0.884,1.168-1.75,1.709c-0.867,0.537-2.019,0.805-3.455,0.805
			c-1.259,0-2.312-0.223-3.166-0.672c-0.85-0.447-1.547-1.041-2.084-1.771c-0.541-0.734-0.93-1.562-1.168-2.492
			c-0.24-0.926-0.359-1.871-0.359-2.828c0-2.154,0.509-3.871,1.527-5.16c1.016-1.287,2.646-2.154,4.893-2.604l2.689-0.582
			c0.69-0.148,1.243-0.307,1.659-0.471c0.423-0.166,0.753-0.377,0.991-0.629c0.234-0.256,0.405-0.568,0.491-0.943
			c0.091-0.373,0.137-0.83,0.137-1.371c0-1.227-0.239-2.084-0.718-2.58c-0.479-0.49-1.182-0.738-2.11-0.738
			c-0.866,0-1.593,0.248-2.18,0.738c-0.582,0.496-0.874,1.131-0.874,1.908c0,0.449,0.031,0.842,0.09,1.168
			c0.062,0.328,0.153,0.672,0.268,1.031l-5.918,0.137c-0.125-0.51-0.215-0.941-0.272-1.305c-0.062-0.359-0.091-0.852-0.091-1.479
			c0-1.168,0.238-2.154,0.719-2.965c0.479-0.809,1.131-1.475,1.957-1.998c0.816-0.523,1.777-0.902,2.868-1.145
			c1.091-0.238,2.266-0.357,3.524-0.357c1.797,0,3.312,0.141,4.555,0.424c1.242,0.285,2.244,0.684,3.01,1.193
			c0.763,0.508,1.314,1.111,1.658,1.816c0.344,0.701,0.517,1.486,0.517,2.357v14.988c0,0.479,0.165,0.846,0.495,1.102
			c0.326,0.252,0.718,0.381,1.168,0.381c0.207,0,0.418-0.047,0.628-0.133v3.631H262.753z"/>
		<path d="M276.846,360.016v-18.223c0-0.598-0.129-1.062-0.385-1.395c-0.252-0.326-0.677-0.49-1.275-0.49
			c-0.843,0-1.502,0.486-1.998,1.457c-0.494,0.973-0.742,2.299-0.742,3.971v14.68h-7.092v-25.764h7.051v4.174
			c0.416-1.467,1.119-2.607,2.107-3.436c0.987-0.82,2.242-1.234,3.771-1.234c0.719,0,1.42,0.121,2.108,0.359
			c0.687,0.24,1.293,0.607,1.816,1.102c0.523,0.492,0.941,1.119,1.259,1.883c0.314,0.766,0.472,1.668,0.472,2.719v20.197H276.846z"
			/>
	</g>
	<path d="M287.664,334.25h7.093v25.764h-7.093V334.25z M287.664,325.545h7.093v6.463h-7.093V325.545z"/>
	<g>
		<path d="M313.518,358.893c-0.211,0.15-0.562,0.314-1.058,0.492c-0.491,0.182-1.054,0.348-1.681,0.496
			c-0.633,0.146-1.297,0.268-1.998,0.357c-0.706,0.092-1.399,0.137-2.09,0.137c-0.928,0-1.762-0.092-2.514-0.271
			c-0.746-0.178-1.383-0.475-1.906-0.896c-0.523-0.42-0.93-0.975-1.211-1.66c-0.283-0.688-0.429-1.543-0.429-2.559l0.091-15.891
			h-3.813v-4.85h3.905l0.178-7.092h6.732v7.092h5.387v4.85h-5.387v13.018c0,0.508,0.094,0.912,0.293,1.215
			c0.193,0.297,0.449,0.52,0.764,0.672c0.314,0.148,0.656,0.248,1.031,0.289c0.371,0.045,0.74,0.07,1.099,0.07
			c0.569,0,1.058-0.055,1.462-0.156c0.404-0.109,0.784-0.232,1.145-0.385V358.893L313.518,358.893z"/>
	</g>
	<path d="M316.568,334.25h7.092v25.764h-7.092V334.25z M316.568,325.545h7.092v6.463h-7.092V325.545z"/>
	<g>
		<path d="M338.604,344.887c-0.059-1.254-0.129-2.287-0.199-3.096c-0.077-0.809-0.188-1.439-0.338-1.906
			c-0.147-0.463-0.358-0.793-0.627-0.986c-0.269-0.195-0.629-0.293-1.078-0.293c-0.957,0-1.602,0.531-1.932,1.594
			c-0.326,1.061-0.52,2.625-0.582,4.688H338.604L338.604,344.887z M333.848,348.523c0,1.438,0.062,2.58,0.182,3.436
			c0.115,0.855,0.298,1.502,0.537,1.951c0.24,0.451,0.554,0.748,0.94,0.896c0.388,0.152,0.839,0.227,1.347,0.227
			c0.961,0,1.621-0.312,2.002-0.943c0.371-0.629,0.517-1.496,0.42-2.602l-0.086-1.033l6.15,0.178
			c0.088,0.48,0.133,1.123,0.133,1.934c0,1.105-0.148,2.146-0.451,3.115c-0.297,0.975-0.783,1.82-1.457,2.539
			c-0.672,0.715-1.547,1.283-2.625,1.705c-1.078,0.416-2.406,0.627-3.996,0.627c-1.553,0-2.959-0.172-4.219-0.516
			c-1.254-0.344-2.332-1.004-3.231-1.979c-0.896-0.969-1.585-2.303-2.063-3.99c-0.479-1.691-0.718-3.887-0.718-6.576
			c0-4.967,0.833-8.549,2.493-10.75c1.658-2.199,4.045-3.299,7.157-3.299c2.812,0,4.907,0.889,6.282,2.668
			c1.379,1.781,2.229,4.307,2.561,7.566c0.091,0.896,0.156,1.75,0.201,2.559c0.046,0.807,0.083,1.6,0.111,2.379L333.848,348.523z"/>
		<path d="M366.614,352.25c0,1.346-0.175,2.539-0.517,3.57c-0.348,1.031-0.904,1.891-1.686,2.58
			c-0.778,0.686-1.787,1.205-3.028,1.547c-1.243,0.344-2.774,0.518-4.6,0.518c-3.175,0-5.466-0.553-6.869-1.66
			c-1.408-1.109-2.108-2.725-2.108-4.85c0-0.566,0.049-1.123,0.155-1.66c0.104-0.537,0.231-1.049,0.386-1.527l5.428,0.359
			c-0.119,0.568-0.178,1.123-0.178,1.664c0,0.957,0.207,1.688,0.627,2.199c0.418,0.508,1.106,0.76,2.063,0.76
			c0.541,0,0.979-0.096,1.325-0.293c0.343-0.189,0.604-0.426,0.785-0.693c0.177-0.268,0.306-0.562,0.384-0.875
			c0.069-0.314,0.11-0.59,0.11-0.83c0-0.688-0.201-1.256-0.606-1.709c-0.404-0.445-1.085-0.879-2.043-1.301l-2.782-1.299
			c-0.568-0.27-1.177-0.6-1.816-0.988c-0.645-0.387-1.242-0.883-1.795-1.48c-0.554-0.6-1.021-1.324-1.396-2.176
			c-0.372-0.855-0.558-1.879-0.558-3.076c0-1.227,0.234-2.311,0.717-3.256c0.479-0.941,1.137-1.732,1.975-2.377
			c0.837-0.646,1.805-1.129,2.895-1.459c1.094-0.33,2.254-0.494,3.479-0.494c1.168,0,2.267,0.127,3.298,0.385
			c1.032,0.252,1.924,0.643,2.672,1.162c0.746,0.523,1.342,1.186,1.774,1.979c0.435,0.793,0.647,1.742,0.647,2.848
			c0,0.479-0.028,0.9-0.091,1.26c-0.059,0.359-0.161,0.719-0.311,1.078l-5.341-0.092c0.086-0.268,0.147-0.531,0.177-0.783
			c0.028-0.256,0.045-0.596,0.045-1.012c0-0.719-0.22-1.264-0.651-1.639c-0.434-0.373-1.023-0.562-1.771-0.562
			c-0.78,0-1.345,0.211-1.705,0.633c-0.358,0.416-0.54,0.971-0.54,1.658c0,0.748,0.256,1.32,0.764,1.727
			c0.508,0.404,1.196,0.801,2.063,1.189l3.454,1.48c0.72,0.33,1.393,0.697,2.023,1.104c0.629,0.398,1.174,0.887,1.639,1.455
			c0.463,0.57,0.83,1.252,1.099,2.045C366.479,350.148,366.614,351.113,366.614,352.25"/>
	</g>
</g>
</svg>
